<?xml version="1.0" encoding="UTF-8" standalone="no"?>
<svg
   xmlns:dc="http://purl.org/dc/elements/1.1/"
   xmlns:cc="http://creativecommons.org/ns#"
   xmlns:rdf="http://www.w3.org/1999/02/22-rdf-syntax-ns#"
   xmlns:svg="http://www.w3.org/2000/svg"
   xmlns="http://www.w3.org/2000/svg"
   xmlns:xlink="http://www.w3.org/1999/xlink"
   xmlns:sodipodi="http://sodipodi.sourceforge.net/DTD/sodipodi-0.dtd"
   xmlns:inkscape="http://www.inkscape.org/namespaces/inkscape"
   sodipodi:docname="logo_icon.svg"
   inkscape:version="1.0 (4035a4fb49, 2020-05-01)"
   id="svg424"
   version="1.1"
   viewBox="0 0 116.41142 134.50191"
   height="134.50191mm"
   width="116.41142mm">
  <defs
     id="defs418">
    <linearGradient
       y2="540"
       x2="561.77002"
       y1="540"
       x1="135.78999"
       gradientUnits="userSpaceOnUse"
       id="linearGradient1464"
       xlink:href="#linear-gradient" />
    <linearGradient
       gradientUnits="userSpaceOnUse"
       y2="540"
       x2="561.77002"
       y1="540"
       x1="135.78999"
       id="linear-gradient">
      <stop
         id="stop4"
         stop-color="#fab90c"
         offset="0" />
      <stop
         id="stop6"
         stop-color="#f7ce60"
         offset="0.54" />
      <stop
         id="stop8"
         stop-color="#fabb14"
         offset="1" />
    </linearGradient>
    <linearGradient
       gradientUnits="userSpaceOnUse"
       y2="730.59998"
       x2="458.87"
       y1="349.14999"
       x1="238.64"
       id="linear-gradient-2">
      <stop
         id="stop11"
         stop-color="#fab90c"
         offset="0" />
      <stop
         id="stop13"
         stop-color="#f7ce60"
         offset="0.41" />
      <stop
         id="stop15"
         stop-color="#f9c231"
         offset="0.6" />
      <stop
         id="stop17"
         stop-color="#fabb14"
         offset="1" />
    </linearGradient>
    <linearGradient
       xlink:href="#linear-gradient"
       x2="554.77002"
       x1="142.8"
       id="linear-gradient-3" />
    <linearGradient
       xlink:href="#linear-gradient-5"
       y2="543"
       x2="554.77002"
       y1="543"
       x1="142.8"
       id="linear-gradient-40"
       gradientTransform="matrix(0.26458333,0,0,0.26458333,13.711399,-49.018388)" />
    <linearGradient
       gradientUnits="userSpaceOnUse"
       y2="534.85999"
       x2="822.94"
       y1="534.85999"
       x1="580.10999"
       id="linear-gradient-5">
      <stop
         id="stop26"
         stop-color="#d69f0a"
         offset="0" />
      <stop
         id="stop28"
         stop-color="#f7ce60"
         offset="0.5" />
      <stop
         id="stop30"
         stop-color="#fabc19"
         offset="1" />
    </linearGradient>
  </defs>
  <sodipodi:namedview
     inkscape:window-maximized="0"
     inkscape:window-y="23"
     inkscape:window-x="26"
     inkscape:window-height="1205"
     inkscape:window-width="1396"
     showgrid="false"
     inkscape:document-rotation="0"
     inkscape:current-layer="layer1"
     inkscape:document-units="mm"
     inkscape:cy="326.19587"
     inkscape:cx="227.22773"
     inkscape:zoom="0.98994949"
     inkscape:pageshadow="2"
     inkscape:pageopacity="0.0"
     borderopacity="1.0"
     bordercolor="#666666"
     pagecolor="#ffffff"
     id="base" />
  <metadata
     id="metadata421">
    <rdf:RDF>
      <cc:Work
         rdf:about="">
        <dc:format>image/svg+xml</dc:format>
        <dc:type
           rdf:resource="http://purl.org/dc/dcmitype/StillImage" />
        <dc:title></dc:title>
      </cc:Work>
    </rdf:RDF>
  </metadata>
  <g
     transform="translate(-47.787086,-26.605259)"
     id="layer1"
     inkscape:groupmode="layer"
     inkscape:label="Ebene 1">
    <polygon
       id="polygon82"
       points="135.79,662.84 135.79,417.41 348.34,293.91 561.77,417.01 561.76,663.11 348.5,786.09 "
       class="cls-2"
       style="fill:url(#linearGradient1464);stroke:url(#linear-gradient-2);stroke-width:14px;stroke-miterlimit:10"
       transform="matrix(0.26458333,0,0,0.26458333,13.711399,-49.018389)" />
    <polygon
       id="polygon84"
       points="142.79,658.8 142.79,421.44 348.35,302 554.77,421.05 554.76,659.06 348.51,778 "
       class="cls-3"
       style="fill:url(#linear-gradient-3);stroke:#e8ab00;stroke-width:6px;stroke-miterlimit:10"
       transform="matrix(0.26458333,0,0,0.26458333,13.711399,-49.018389)" />
    <path
       style="fill:#061722;stroke-width:0.264583"
       id="path90"
       d="m 99.790939,49.877577 a 49.389771,49.389771 0 0 1 19.806711,-0.20638 c 10.82146,2.11667 20.90208,7.9375 28.04583,16.37241 -3.84175,3.62744 -7.64381,7.29721 -11.48556,10.92465 -3.50309,-3.72269 -7.58825,-6.96119 -12.21846,-9.17046 a 32.485542,32.485542 0 0 0 -20.90208,-2.44475 c -8.389941,1.80975 -15.634231,7.79992 -19.415131,15.44638 -2.83898,5.84993 -3.3946,12.61533 -2.32039,18.97327 0.98425,5.820833 3.78354,11.377083 8.07772,15.478123 a 29.217937,29.217937 0 0 0 15.030981,7.47184 c 7.09348,1.20385 14.69232,0.28839 20.99734,-3.29671 4.00843,-2.27542 7.47448,-5.36046 10.77648,-8.5434 3.70416,3.86556 7.38452,7.73642 11.1125,11.57288 -5.08794,4.96093 -10.69182,9.56997 -17.19792,12.56241 -4.64608,2.10344 -9.6811,3.26496 -14.74523,3.70417 -8.37671,0.71172 -17.028581,-0.12171 -24.823211,-3.42107 -7.72319,-3.23585 -14.37746,-8.90058 -18.99973,-15.90145 -3.65654,-5.54302 -5.85523,-11.98033 -6.67279,-18.55258 -0.81227,-6.691323 -0.55298,-13.567843 1.23031,-20.087173 a 41.489312,41.489312 0 0 1 10.95905,-18.65313 47.918687,47.918687 0 0 1 22.74358,-12.22903 z"
       class="cls-1" />
    <path
       style="fill:#ffde9c;stroke-width:0.264583"
       id="path184"
       d="m 53.795769,105.36599 q 0.13494,2.24896 0.21961,4.49792 c 0.0661,1.50018 0.10054,2.99773 0.14816,4.49791 0.0476,1.50019 0.0767,2.99773 0.0926,4.49792 0.0159,1.50019 0.0503,2.99773 0.0503,4.49792 l -0.26459,-0.44186 c 1.85209,1.05834 3.7174,2.14048 5.55625,3.23586 1.83886,1.09537 3.68565,2.19074 5.52186,3.2967 1.83621,1.10596 3.67771,2.24367 5.4901,3.38137 1.8124,1.13771 3.62744,2.29659 5.41073,3.4925 -1.92087,-0.96308 -3.81529,-1.97114 -5.70177,-2.98979 -1.88648,-1.01864 -3.76502,-2.05846 -5.63827,-3.10091 -1.87325,-1.04246 -3.73592,-2.11667 -5.59065,-3.175 -1.85472,-1.05833 -3.70416,-2.15635 -5.55625,-3.24644 l -0.26458,-0.15081 v -0.29104 c 0,-1.50019 0.0344,-2.99773 0.0503,-4.49792 0.0159,-1.50018 0.0635,-2.99773 0.0926,-4.49791 0.0291,-1.50019 0.082,-2.99773 0.14816,-4.49792 0.0661,-1.50019 0.14552,-3.00831 0.23548,-4.5085 z"
       class="cls-34" />
    <path
       style="fill:#ffde9c;stroke-width:0.264583"
       id="path186"
       d="m 68.612439,54.830567 c -1.18798,0.80963 -2.39448,1.5875 -3.60098,2.36009 l -1.82298,1.14829 -1.82562,1.13506 q -1.83092,1.12713 -3.67507,2.23308 c -1.23296,0.73025 -2.45798,1.47638 -3.70416,2.19075 l 0.19314,-0.33602 c 0,1.23561 0,2.46857 -0.0291,3.70417 -0.0291,1.2356 -0.0344,2.46856 -0.0661,3.70417 -0.0317,1.2356 -0.0688,2.46856 -0.11377,3.70416 -0.045,1.23561 -0.10319,2.46857 -0.18256,3.70417 -0.0794,-1.2356 -0.13229,-2.46856 -0.18256,-3.70417 -0.0503,-1.2356 -0.0873,-2.46856 -0.11377,-3.70416 -0.0265,-1.23561 -0.0529,-2.46857 -0.0661,-3.70417 -0.0132,-1.2356 -0.0212,-2.46856 -0.0291,-3.70417 v -0.2196 l 0.19579,-0.11906 c 1.22766,-0.73819 2.47121,-1.44727 3.70416,-2.17223 1.23296,-0.72496 2.48444,-1.42875 3.73327,-2.13254 l 1.87855,-1.05834 1.88648,-1.03452 c 1.27529,-0.66675 2.53735,-1.34937 3.82058,-1.99496 z"
       class="cls-34" />
    <path
       style="fill:#ffde9c;stroke-width:0.264583"
       id="path188"
       d="m 92.160359,41.601407 c 1.11389,-0.69586 2.24366,-1.3679 3.36814,-2.04523 1.12448,-0.67733 2.25425,-1.34673 3.38667,-2.01348 q 3.397251,-1.99231 6.823601,-3.937 l 0.17727,-0.10054 0.18257,0.0979 q 2.98714,1.63513 5.9637,3.28878 c 1.98173,1.1086 3.96875,2.2172 5.93196,3.34433 0.98954,0.56092 1.97115,1.12977 2.95275,1.69862 0.98161,0.56886 1.96586,1.13771 2.94217,1.7145 0.97631,0.5768 1.95527,1.15623 2.92894,1.74096 0.97366,0.58473 1.94733,1.16681 2.91041,1.76742 -1.01864,-0.50271 -2.02935,-1.02129 -3.04006,-1.53988 -1.01071,-0.51858 -2.02142,-1.03452 -3.02419,-1.56633 -1.00277,-0.53181 -2.01083,-1.05833 -3.01096,-1.5875 -1.00012,-0.52917 -2.00554,-1.05833 -3.00037,-1.60867 -2.00025,-1.07685 -3.98727,-2.17223 -5.97429,-3.27025 -1.98702,-1.09802 -3.96875,-2.20927 -5.94254,-3.32581 h 0.35983 q -3.45546,1.88913 -6.934731,3.73592 c -1.16152,0.61383 -2.32304,1.22502 -3.4925,1.82298 -1.16946,0.59796 -2.31775,1.20121 -3.50837,1.78329 z"
       class="cls-34" />
    <path
       style="fill:#ffde9c;stroke-width:0.264583"
       id="path190"
       d="m 148.5166,59.063907 q 1.23031,0.58737 2.45004,1.19856 1.21973,0.61119 2.42888,1.23825 c 0.80962,0.41275 1.61131,0.83608 2.41564,1.25942 0.80434,0.42333 1.60338,0.85195 2.40507,1.28322 l 0.17991,0.0952 v 0.21696 c 0.0344,1.77536 0.0291,3.55071 0.0397,5.32607 0.0106,1.77535 0,3.54806 -0.0397,5.32341 -0.0132,0.88636 -0.0265,1.77536 -0.0476,2.66171 -0.0212,0.88635 -0.0397,1.77535 -0.0714,2.66435 -0.0529,1.77271 -0.127,3.54807 -0.23813,5.32342 -0.11112,-1.77535 -0.1852,-3.55071 -0.23812,-5.32342 -0.0318,-0.889 -0.0503,-1.77535 -0.0714,-2.66435 -0.0212,-0.889 -0.0344,-1.77535 -0.0476,-2.66171 -0.037,-1.78594 -0.037,-3.55071 -0.037,-5.32341 0,-1.77271 0,-3.55071 0.0397,-5.32607 l 0.18257,0.31221 c -0.79375,-0.44979 -1.5875,-0.89958 -2.35744,-1.3626 -0.76994,-0.46302 -1.56898,-0.91546 -2.34686,-1.38642 -0.77787,-0.47096 -1.55839,-0.93398 -2.33362,-1.40758 -0.77523,-0.47361 -1.54517,-0.95779 -2.31246,-1.44727 z"
       class="cls-34" />
    <path
       style="fill:#ffde9c;stroke-width:0.264583"
       id="path192"
       d="m 158.57077,114.09724 c 0.11641,1.71979 0.19314,3.43958 0.24871,5.15937 0.0344,0.8599 0.0476,1.7198 0.0741,2.57969 0.0265,0.8599 0.0291,1.71979 0.045,2.57969 v 0.20637 l -0.18786,0.11113 c -1.32291,0.79375 -2.67758,1.56633 -4.02166,2.33891 -1.34409,0.77258 -2.69611,1.53458 -4.05607,2.27806 -0.67733,0.37836 -1.35731,0.74877 -2.03993,1.11655 -0.68263,0.36777 -1.36525,0.73554 -2.05316,1.09537 -1.37319,0.72496 -2.75167,1.43669 -4.15132,2.11667 1.29117,-0.86519 2.60086,-1.69863 3.91848,-2.51619 q 0.98954,-0.61913 1.98173,-1.21973 c 0.6641,-0.40481 1.32291,-0.79375 1.99496,-1.19856 1.32291,-0.79375 2.67229,-1.5875 4.01372,-2.35214 1.34144,-0.76465 2.69082,-1.53988 4.04813,-2.29129 l -0.18521,0.3175 c 0.0159,-0.8599 0.0212,-1.7198 0.045,-2.57969 0.0238,-0.8599 0.0397,-1.71979 0.0741,-2.57969 0.0582,-1.72244 0.13494,-3.44223 0.25136,-5.16202 z"
       class="cls-34" />
    <path
       style="opacity:0.09;fill:url(#linear-gradient-40);stroke-width:0.264583"
       class="cls-37"
       d="m 105.88165,32.629387 53.78978,31.02239 V 125.67805 L 105.92398,156.67398 52.314109,125.60661 V 63.754967 l 53.567541,-31.12558 m 0,-0.94986 -54.387751,31.60183 v 62.801503 l 54.427431,31.53833 54.57031,-31.46953 V 63.180817 L 105.879,31.679527 Z"
       id="path196" />
  </g>
</svg>
